<svg xmlns="http://www.w3.org/2000/svg" version="1.1" viewBox="0.0 25.0 100.0 50.0">
 <path fill="gold" d="m48.531 26.789c-2.6484 0.019532-5.2852 0.25781-7.8867 0.69531-8.6602 1.457-16.891 5.1797-23.691 10.91l0.70703-0.59766-12.336-9.2852-2.5469 44.699 43.953-13.562-11.906-8.957c1.7461-1.1836 3.5078-2.4297 5.3242-3.2656 3.9062-1.793 6.8359-2.625 11.277-3.1602 3.8086-0.46094 6.6211-0.42969 10.168 0.10547 12.949 1.9414 23.762 10.352 28.562 22.113 0.29297 0.72656 0.67969 1.7695 1.0547 2.625 0.066406 0.085937 0.082031 0.18359 0.16797 0.33984 0.066406 0.078125 0.10547 0.17969 0.19531 0.30078 0.085937 0.12109 0.42969 0.48047 0.42969 0.48438 0 0 0.45703 0.33594 0.45703 0.33984l0.8125 0.35156 1.2383 0.09375s1.2383-0.45703 1.2422-0.46094l0.76953-0.67578s0.36328-0.57422 0.36328-0.57812c0-0.003907 0.21484-0.55078 0.24609-0.71484 0.14844-0.66406 0.074219-0.74609 0.066407-0.90234-0.007813-0.15625 0-0.26953 0-0.37891-0.066407-0.44531-0.12891-0.90625-0.23438-1.4609-0.20703-1.1055-0.50391-2.4414-0.76953-3.4336-4.918-18.383-20.48-32.078-39.684-35.051-2.6523-0.41016-5.3164-0.60156-7.9648-0.57812z"/>
</svg>